<?xml version="1.0" standalone="no"?>
<!DOCTYPE svg PUBLIC "-//W3C//DTD SVG 1.1//EN" "http://www.w3.org/Graphics/SVG/1.1/DTD/svg11.dtd" >
<svg xmlns="http://www.w3.org/2000/svg" xmlns:xlink="http://www.w3.org/1999/xlink" version="1.1">
<metadata></metadata>
<defs>
<font id="sofia_promedium_italic" horiz-adv-x="1171" >
<font-face units-per-em="2048" ascent="1536" descent="-512" />
<missing-glyph horiz-adv-x="520" />
<glyph unicode="&#xfb01;" horiz-adv-x="1310" d="M188 782l31 174h180l17 88q38 203 154 318t307 115h104l-35 -203h-104q-50 0 -88 -18t-61.5 -51.5t-38 -72t-23.5 -88.5l-17 -88h510h209l-168 -956h-209l138 782h-510l-138 -782h-213l138 782h-183zM1155 1343q10 56 59 95t107 39q60 0 93 -38.5t22 -95.5t-57.5 -95 t-106.5 -38q-58 0 -92.5 38.5t-24.5 94.5z" />
<glyph unicode="&#xfb02;" horiz-adv-x="1288" d="M188 782l31 174h180l17 88q38 203 154 318t307 115h524l-260 -1477h-211l225 1274h-313q-50 0 -88 -18t-61.5 -51.5t-38 -72t-23.5 -88.5l-17 -88h215l-30 -174h-215l-138 -782h-213l138 782h-183z" />
<glyph unicode="&#xfb03;" horiz-adv-x="2070" d="M188 782l31 174h180l17 88q38 203 154 318t307 115h104l-35 -203h-104q-50 0 -88 -18t-61.5 -51.5t-38 -72t-23.5 -88.5l-17 -88h545l17 88q38 204 153.5 318.5t306.5 114.5h105l-35 -203h-104q-50 0 -88 -18t-61.5 -51.5t-38 -72t-23.5 -88.5l-17 -88h719l-168 -956 h-209l137 782h-510l-137 -782h-213l137 782h-546l-138 -782h-213l138 782h-183zM1915 1343q10 56 59 95t107 39q60 0 92.5 -38.5t21.5 -95.5t-57 -95t-106 -38q-58 0 -92.5 38.5t-24.5 94.5z" />
<glyph unicode="&#xfb04;" horiz-adv-x="2048" d="M188 782l31 174h180l17 88q38 203 154 318t307 115h104l-35 -203h-104q-50 0 -88 -18t-61.5 -51.5t-38 -72t-23.5 -88.5l-17 -88h545l17 88q38 204 153.5 318.5t306.5 114.5h525l-260 -1477h-211l225 1274h-313q-50 0 -88 -18t-61.5 -51.5t-38 -72t-23.5 -88.5l-17 -88 h215l-30 -174h-216l-137 -782h-213l137 782h-546l-138 -782h-213l138 782h-183z" />
<glyph horiz-adv-x="0" />
<glyph horiz-adv-x="682" />
<glyph unicode=" "  horiz-adv-x="520" />
<glyph unicode="&#x09;" horiz-adv-x="520" />
<glyph unicode="&#xa0;" horiz-adv-x="520" />
<glyph unicode="!" horiz-adv-x="548" d="M150 119q12 61 60 100t107 39q61 0 97 -40t26 -99t-59.5 -98t-110.5 -39t-95.5 39t-24.5 98zM254 379l152 1032h227l-211 -1032h-168z" />
<glyph unicode="&#x22;" horiz-adv-x="729" d="M301 817l92 594h160l-117 -594h-135zM580 817l92 594h159l-116 -594h-135z" />
<glyph unicode="#" horiz-adv-x="1380" d="M135 344l78 178h219l160 355h-215l82 178h217l162 356h190l-162 -356h217l162 356h191l-162 -356h219l-84 -178h-221l-162 -355h221l-80 -178h-221l-162 -344h-186l158 344h-215l-162 -344h-186l159 344h-217zM621 522h215l161 355h-217z" />
<glyph unicode="$" horiz-adv-x="1155" d="M162 410h217q-13 -91 53 -161.5t186 -70.5q118 0 196 54.5t106 138.5q35 172 -183 229l-172 45q-332 94 -280 379q19 108 91 196.5t173.5 139.5t216.5 63l39 209h133l-39 -211q168 -24 251.5 -132.5t53.5 -278.5h-217q19 97 -39.5 155t-169.5 58q-99 0 -179 -55t-97 -140 q-28 -135 153 -184l174 -47q198 -54 273 -168.5t31 -270.5q-45 -157 -176.5 -260.5t-311.5 -115.5l-41 -228h-133l41 230q-184 20 -281 143t-69 283z" />
<glyph unicode="%" horiz-adv-x="1400" d="M268 1098q20 115 114 194.5t208 79.5q115 0 180 -79t45 -195q-22 -116 -115 -194.5t-208 -78.5q-116 0 -181 78.5t-43 194.5zM285 0l909 1368h137l-911 -1368h-135zM418 1098q-10 -54 19 -88.5t83 -34.5q52 0 94 35t52 88t-20.5 89t-82.5 36q-54 0 -94 -35.5t-51 -89.5z M821 252q20 116 112.5 195t209.5 79q115 0 180 -79t45 -195q-22 -116 -115.5 -194t-208.5 -78q-116 0 -179.5 77.5t-43.5 194.5zM971 252q-10 -54 18 -88.5t82 -34.5t97 34.5t53 88.5q11 51 -20 88t-85 37q-53 0 -93.5 -36.5t-51.5 -88.5z" />
<glyph unicode="&#x26;" horiz-adv-x="1363" d="M184 420q23 122 96 217.5t185 150.5q-50 42 -70.5 114.5t-3.5 156.5q29 150 155 254t288 108q113 1 197 -51t126 -145l-192 -107q-53 101 -154 101q-80 0 -137.5 -48t-69.5 -118q-9 -41 2 -84.5t47 -77t92 -33.5h267l32 178h197l-33 -178h176l-28 -170h-176l-47 -262 q-9 -51 -11 -87t5 -70t25.5 -54.5t54 -32.5t87.5 -12l-32 -190q-267 0 -316 157q-64 -76 -165.5 -116.5t-209.5 -40.5q-204 0 -312 125.5t-75 314.5zM397 426q-17 -107 43.5 -175.5t177.5 -68.5q136 0 220.5 89t111.5 243l31 174h-270q-122 0 -211.5 -81.5t-102.5 -180.5z " />
<glyph unicode="'" horiz-adv-x="450" d="M301 817l92 594h160l-117 -594h-135z" />
<glyph unicode="(" horiz-adv-x="751" d="M161.5 -32q-33.5 211 14.5 505q78 434 285 694t469 260l-33 -192q-172 0 -320.5 -213t-209.5 -549q-39 -228 -19.5 -396.5t93 -265t186.5 -96.5l-35 -192q-173 0 -285 117t-145.5 328z" />
<glyph unicode=")" horiz-adv-x="751" d="M-8 -477l28 192q112 0 218 95t188.5 268.5t122.5 394.5q39 228 19.5 397t-93 267t-184.5 98l35 192q172 0 284 -118t145 -330t-16 -506q-76 -433 -282 -691.5t-465 -258.5z" />
<glyph unicode="*" horiz-adv-x="966" d="M297 1098l86 159l235 -100l31 275h172l-65 -273l276 98l21 -159l-275 -72l135 -219l-153 -94l-109 227l-198 -231l-113 100l213 213z" />
<glyph unicode="+" horiz-adv-x="1054" d="M182 442l33 187h328l59 327h186l-59 -327h328l-33 -187h-328l-57 -329h-186l57 329h-328z" />
<glyph unicode="," horiz-adv-x="530" d="M-14 -213q183 214 223 471h221q-40 -186 -129.5 -321t-183.5 -199z" />
<glyph unicode="-" horiz-adv-x="985" d="M203 389l35 191h714l-34 -191h-715z" />
<glyph unicode="." horiz-adv-x="544" d="M150 117q10 60 57.5 99.5t107.5 39.5q61 0 97 -40t26 -99t-60.5 -98t-111.5 -39q-60 0 -93 38.5t-23 98.5z" />
<glyph unicode="/" horiz-adv-x="1028" d="M63 0l941 1411h208l-940 -1411h-209z" />
<glyph unicode="0" horiz-adv-x="1236" d="M223 449q4 97 25 217t51.5 218.5t81 188t115.5 150.5t157.5 97t204.5 36q114 0 193.5 -36t123 -96.5t61.5 -150.5t14 -188t-25 -219q-21 -119 -52 -217t-81 -187t-115.5 -150t-158 -96.5t-204.5 -35.5q-114 0 -193.5 36t-122.5 96.5t-61 150t-14 186.5zM457 666 q-89 -482 194 -482q81 0 143.5 37t105 106.5t69.5 150.5t47 188q89 481 -193 481q-66 0 -120 -25t-92 -67.5t-68.5 -105.5t-50 -131t-35.5 -152z" />
<glyph unicode="1" horiz-adv-x="704" d="M258 987l33 195l463 170l-240 -1352h-209l187 1067z" />
<glyph unicode="2" horiz-adv-x="1089" d="M119 0l16 100l662 656q108 105 127 202q13 86 -39.5 139.5t-147.5 53.5q-88 0 -161.5 -56.5t-102.5 -148.5l-192 43q56 168 193 268.5t302 100.5q87 0 160.5 -29.5t122.5 -81t69.5 -127t4.5 -162.5q-32 -183 -207 -344q-60 -58 -183.5 -177t-236.5 -232h485l-35 -205 h-837z" />
<glyph unicode="3" horiz-adv-x="1101" d="M121 250l205 98q17 -65 85 -114.5t138 -49.5h-2q123 0 196 56.5t91 148.5q13 88 -38.5 156.5t-162.5 68.5h-150l35 195h150q73 0 125.5 47t72.5 105q10 32 12 63t-17.5 62t-59.5 49q-25 14 -90 14q-117 3 -207 -105l-139 117q72 97 188 150.5t240 46.5q107 -5 185 -58 t110.5 -136t15.5 -177q-13 -78 -71 -149t-138 -115q91 -36 132 -138t20 -212q-33 -182 -182.5 -287.5t-354.5 -105.5q-153 0 -254 74t-135 196z" />
<glyph unicode="4" horiz-adv-x="1210" d="M92 281l899 1056h180l-155 -866h186l-31 -190h-186l-49 -281h-209l49 281h-684zM457 471h350l96 522z" />
<glyph unicode="5" horiz-adv-x="1165" d="M141 276l197 103q23 -90 88.5 -142.5t153.5 -52.5q149 0 239.5 72t112.5 184q21 119 -44 183.5t-181 64.5q-85 0 -164.5 -27t-180.5 -94l-108 92l233 678h732l-33 -198h-561l-123 -338q51 34 124 55t136 21q195 0 303.5 -115t73.5 -322q-37 -209 -200.5 -334.5 t-395.5 -125.5q-139 0 -250 81t-152 215z" />
<glyph unicode="6" horiz-adv-x="1148" d="M213 440q9 94 25 182.5t43 183t63 175t88 152.5t114 121.5t145 77t179 24.5q130 -5 216.5 -61t127.5 -197l-202 -82q-43 143 -185 143q-139 0 -245 -129.5t-123 -318.5q115 151 313 151q174 0 271 -130t61 -326q-41 -185 -192 -305.5t-341 -120.5q-181 0 -279.5 125 t-78.5 335zM428 432q-19 -103 35.5 -172.5t152.5 -71.5q97 -5 179.5 62t99.5 166q17 101 -32 170t-146 73t-184.5 -65t-104.5 -162z" />
<glyph unicode="7" horiz-adv-x="1089" d="M117 0l794 1135h-600l37 202h946l-934 -1337h-243z" />
<glyph unicode="8" horiz-adv-x="1167" d="M182 424q20 111 90 202.5t174 147.5q-81 90 -57 234q25 144 149.5 247t282.5 103t248.5 -103t65.5 -247q-23 -136 -146 -234q86 -57 122.5 -148.5t16.5 -201.5q-34 -186 -193.5 -315t-356.5 -129q-131 0 -230 59t-143.5 161t-22.5 224zM393 426q-20 -101 45 -172.5 t174 -71.5q111 0 199.5 71t108.5 173q15 99 -45 170.5t-168 71.5h-23q-105 0 -189 -72t-102 -170zM594 1006q-11 -68 28 -112t113 -44q71 1 125.5 46.5t65.5 109.5q11 62 -29 105.5t-111 43.5q-72 0 -128 -43.5t-64 -105.5z" />
<glyph unicode="9" horiz-adv-x="1148" d="M164 238l207 81q43 -143 184 -143q139 0 241.5 128.5t123.5 320.5q-49 -72 -131.5 -112t-180.5 -40q-172 0 -268.5 130.5t-60.5 326.5q37 184 188.5 305t341.5 121q181 0 279.5 -125.5t78.5 -335.5q-9 -95 -25 -183t-43 -182.5t-62.5 -174.5t-87.5 -152t-114.5 -121.5 t-145.5 -77t-179 -24.5q-60 2 -109 14.5t-97.5 40t-84 79t-55.5 124.5zM487 920q-19 -101 31 -170.5t148 -73.5q96 -4 182.5 64.5t103.5 162.5q18 102 -36 170.5t-150 73.5q-97 4 -179.5 -63t-99.5 -164z" />
<glyph unicode=":" horiz-adv-x="559" d="M156 117q10 60 59 99.5t109 39.5q61 0 95.5 -40t24.5 -99t-60.5 -98t-109.5 -39q-61 0 -94.5 38.5t-23.5 98.5zM283 838q10 60 59.5 99.5t110.5 39.5t94.5 -39t23.5 -100q-10 -59 -60 -99.5t-108 -40.5q-60 0 -95 40t-25 100z" />
<glyph unicode=";" horiz-adv-x="585" d="M4 -213q185 205 227 471h228q-21 -97 -58.5 -184.5t-81.5 -151.5t-87 -109.5t-85 -74.5zM305 838q10 60 60.5 99.5t111.5 39.5t95 -39t24 -100q-10 -59 -60 -99.5t-108 -40.5q-61 0 -97 40.5t-26 99.5z" />
<glyph unicode="&#x3c;" horiz-adv-x="1257" d="M168 471l35 191l1104 395l-35 -205l-819 -285l716 -288l-36 -205z" />
<glyph unicode="=" horiz-adv-x="1241" d="M190 246l33 182h942l-32 -182h-943zM262 645l31 182h942l-31 -182h-942z" />
<glyph unicode="&#x3e;" horiz-adv-x="1257" d="M145 74l35 205l821 288l-718 285l36 205l965 -395l-35 -191z" />
<glyph unicode="?" horiz-adv-x="997" d="M262 999q36 193 173.5 310.5t312.5 117.5q179 0 282 -109.5t72 -289.5q-28 -144 -127.5 -246.5t-233.5 -140.5q-73 -20 -111.5 -54t-51.5 -102l-23 -104h-205l19 104q12 68 33.5 117t46.5 78.5t64.5 55.5t75 41.5t92 42.5t101.5 54q91 57 109 154q17 84 -37.5 137.5 t-142.5 53.5q-83 0 -156 -61.5t-90 -158.5h-203zM264 119q12 61 60.5 100t107.5 39q61 0 97 -40t26 -99t-59.5 -98t-110.5 -39t-96 39t-25 98z" />
<glyph unicode="@" horiz-adv-x="1984" d="M188 518q32 184 130.5 350t237.5 286.5t316.5 191.5t360.5 71q185 0 343 -65.5t263 -179t150.5 -275t13.5 -344.5q-14 -76 -40 -153.5t-70 -156.5t-98.5 -139.5t-129.5 -98.5t-158 -38q-60 0 -107 15t-84 48t-50.5 93t0.5 143l47 262q17 110 -44.5 184t-168.5 74 q-106 0 -196 -75t-107 -183q-20 -104 44 -180t169 -76q98 0 207 88l-31 -180q-110 -61 -205 -61q-172 0 -269.5 118.5t-68.5 290.5q19 112 91 207.5t176.5 150t215.5 54.5q80 0 150 -30.5t115 -82.5q102 -119 79 -280l-53 -295q-28 -131 117 -131q54 0 102.5 30t81.5 75.5 t60 105t42.5 114t24.5 107.5q26 151 -12 284.5t-125 226.5t-217.5 146.5t-284.5 53.5q-201 0 -387.5 -100t-314 -271.5t-162.5 -374.5q-19 -125 -5 -235t66.5 -202.5t129 -159t182 -103.5t227.5 -37h51l-26 -156h-52q-184 0 -336 70t-248.5 189.5t-135.5 284.5t-7 349z" />
<glyph unicode="A" horiz-adv-x="1325" d="M12 0l781 1411h235l285 -1411h-230l-75 352h-570l-194 -352h-232zM547 547h422l-105 592z" />
<glyph unicode="B" horiz-adv-x="1288" d="M184 0l248 1411h541q180 0 268 -100q65 -74 65 -188q0 -40 -8 -85q-15 -94 -71.5 -170.5t-159.5 -115.5q112 -28 164 -128q38 -74 38 -152q0 -29 -5 -58q-30 -174 -166.5 -294t-329.5 -120h-584zM436 199h355q93 0 162.5 65.5t82.5 151.5q3 20 3 39q0 64 -34 119 q-44 71 -141 71h-348zM549 831h313q83 0 139 57.5t70 141.5q5 24 5 46q0 54 -30 88q-42 48 -131 48h-299z" />
<glyph unicode="C" horiz-adv-x="1400" d="M219 702q36 197 159 363.5t304 264t377 97.5q167 0 296 -67t204 -186l-189 -132q-58 82 -147 129.5t-201 47.5q-208 0 -378.5 -151t-207.5 -366q-9 -51 -8 -99q0 -87 27 -161q43 -118 144.5 -186t240.5 -68q115 0 221.5 48.5t189.5 136.5l146 -133 q-114 -123 -268.5 -191.5t-325.5 -68.5q-147 0 -269 57t-200 153t-110 230q-17 72 -17 150q0 64 12 132z" />
<glyph unicode="D" horiz-adv-x="1472" d="M184 0l248 1411h549q196 0 325 -94q130 -93 176 -253q25 -89 25 -192q0 -81 -16 -170q-27 -151 -93 -279t-162 -222t-226 -147.5t-277 -53.5h-549zM434 201h332q134 0 242.5 67.5t174.5 179t91 254.5q13 66 13 127q-1 36 -5 70q-12 92 -49 160.5t-111 108.5t-176 40h-332 z" />
<glyph unicode="E" horiz-adv-x="1161" d="M184 0l248 1411h850l-35 -201h-633l-73 -417h553l-37 -199h-553l-70 -395h653l-32 -199h-871z" />
<glyph unicode="F" horiz-adv-x="1079" d="M184 0l248 1411h838l-35 -201h-621l-73 -417h491l-37 -199h-491l-103 -594h-217z" />
<glyph unicode="G" horiz-adv-x="1546" d="M219 702q36 197 159.5 363.5t305 264t377.5 97.5q145 0 263 -52t194 -146l-187 -142q-52 63 -131.5 98.5t-175.5 35.5q-137 0 -264 -70t-213.5 -189t-110.5 -260q-8 -50 -8 -97q0 -86 28 -163q44 -119 146 -188.5t240 -69.5q176 0 312.5 95t172.5 251h-395l31 187h645 q-32 -186 -105.5 -327.5t-178.5 -230.5t-235.5 -134t-283.5 -45q-148 0 -270.5 57t-200.5 153.5t-110 229.5q-17 73 -17 150q0 64 12 132z" />
<glyph unicode="H" horiz-adv-x="1443" d="M184 0l248 1411h217l-106 -610h637l106 610h221l-247 -1411h-222l105 602h-637l-105 -602h-217z" />
<glyph unicode="I" horiz-adv-x="585" d="M184 0l248 1411h217l-248 -1411h-217z" />
<glyph unicode="J" horiz-adv-x="587" d="M-287 -481l56 202q23 -8 72.5 -13t68.5 -5q112 0 177 70.5t87 183.5l258 1454h219l-258 -1454q-17 -98 -55.5 -179.5t-101 -146t-155.5 -101t-208 -36.5q-69 0 -160 25z" />
<glyph unicode="K" horiz-adv-x="1193" d="M184 0l248 1411h219l-102 -573l534 573h256l-665 -702l543 -709h-287l-426 571l-101 -571h-219z" />
<glyph unicode="L" horiz-adv-x="1021" d="M184 0l248 1411h217l-215 -1212h565l-32 -199h-783z" />
<glyph unicode="M" horiz-adv-x="1898" d="M104 0l420 1411h193l303 -1005l655 1005h195l-76 -1411h-217l55 1008l-563 -850h-184l-267 850l-296 -1008h-218z" />
<glyph unicode="N" horiz-adv-x="1394" d="M184 0l248 1411h209l424 -1001l176 1001h217l-248 -1411h-202l-430 1010l-177 -1010h-217z" />
<glyph unicode="O" horiz-adv-x="1622" d="M219 702q27 147 106 281t190.5 231.5t254 155t289.5 57.5q148 0 271.5 -57.5t201.5 -155.5q80 -97 112 -231q18 -73 17 -150q0 -64 -12 -131q-36 -198 -159 -363.5t-305.5 -262t-381.5 -96.5q-197 0 -344 96t-211 262q-41 107 -41 228q0 66 12 136zM436 702 q-8 -50 -8 -96q0 -86 28 -162q44 -116 145.5 -183.5t238.5 -67.5q210 0 381.5 148t208.5 361q8 49 8 96q0 86 -28 162q-44 118 -147 186t-241 68q-209 0 -379 -149t-207 -363z" />
<glyph unicode="P" horiz-adv-x="1243" d="M184 0l248 1411h567q75 0 135.5 -17.5t100.5 -48.5t69 -73.5t40.5 -92.5t14.5 -105q1 -11 1 -22q0 -44 -10 -89q-17 -87 -55.5 -164t-99 -141.5t-151.5 -102t-202 -37.5h-348l-91 -518h-219zM528 717h336q110 0 180 72.5t89 173.5q6 26 6 53q0 18 -3 36q-7 44 -24.5 79 t-56.5 57t-94 22h-345z" />
<glyph unicode="Q" horiz-adv-x="1626" d="M219 702q36 197 159.5 363.5t305 264t377.5 97.5q199 0 348 -97.5t215 -263.5q42 -108 42 -228q0 -66 -13 -136q-35 -189 -150.5 -348.5t-285.5 -259.5l102 -231l-180 -101l-115 250q-95 -32 -219 -32q-148 0 -270.5 57t-200.5 153.5t-110 229.5q-17 73 -17 150 q0 64 12 132zM436 702q-10 -52 -10 -101q0 -135 76 -241q103 -144 293 -161q28 -4 58 -4q43 0 89 8l-98 221l180 100l109 -248q118 68 197 180t104 246q8 50 8 97q0 86 -28 163q-44 118 -147 187.5t-243 69.5q-138 0 -265 -69.5t-213 -188t-110 -259.5z" />
<glyph unicode="R" horiz-adv-x="1273" d="M184 0l248 1411h551q74 0 134 -17.5t100 -49t69 -74t41 -92.5t15 -104q1 -11 1 -22q0 -44 -10 -89q-15 -81 -48.5 -152t-86 -132.5t-131 -102t-174.5 -50.5l278 -526h-264l-262 518h-151l-91 -518h-219zM528 717h316q56 0 103.5 21t79 57t52 78.5t29.5 89.5q5 32 5 62 q-1 28 -5 55q-8 55 -52 92.5t-116 37.5h-324z" />
<glyph unicode="S" horiz-adv-x="1175" d="M172 410h217q-2 -15 -3 -29q0 -73 56 -133q66 -70 187 -70q118 0 195 54.5t104 138.5q7 28 7 53q0 130 -190 176l-170 45q-287 81 -287 305q0 35 7 74q21 118 101.5 211t194.5 142.5t238 49.5q201 0 311 -114q83 -86 83 -215q0 -42 -9 -88h-217q5 24 5 45q0 66 -44 110 q-58 58 -170 58q-100 0 -179.5 -55t-96.5 -140q-4 -18 -4 -34q0 -106 158 -150l174 -47q199 -55 274 -169q46 -69 46 -155q0 -54 -19 -115q-45 -167 -196 -272.5t-351 -105.5q-142 0 -247 60t-151 158q-31 67 -31 142q0 34 7 70z" />
<glyph unicode="T" horiz-adv-x="1167" d="M270 1208l35 203h1053l-35 -203h-416l-213 -1208h-221l213 1208h-416z" />
<glyph unicode="U" horiz-adv-x="1386" d="M252 489l166 922h221l-166 -922q-6 -32 -6 -62q0 -92 57 -155q75 -84 201 -84t228 83.5t126 217.5l164 922h221l-164 -922q-27 -151 -120.5 -268.5t-222.5 -179t-269 -61.5q-106 0 -195 36.5t-149 101.5q-60 64 -86 160q-14 54 -15 114q0 47 9 97z" />
<glyph unicode="V" horiz-adv-x="1159" d="M299 1411h227l115 -1049l489 1049h226l-674 -1411h-203z" />
<glyph unicode="W" horiz-adv-x="1837" d="M270 1411h234l149 -1051l396 859h170l88 -859l522 1051h233l-725 -1411h-182l-90 846l-383 -846h-182z" />
<glyph unicode="X" horiz-adv-x="1277" d="M18 0l623 756l-324 655h263l223 -479l395 479h260l-555 -655l359 -756h-261l-262 578l-463 -578h-258z" />
<glyph unicode="Y" horiz-adv-x="1298" d="M248 1411h260l291 -561l491 561h260l-678 -766l-112 -645h-223l114 647z" />
<glyph unicode="Z" horiz-adv-x="1181" d="M84 0l29 180l905 1030h-692l34 201h971l-31 -182l-909 -1028h725l-33 -201h-999z" />
<glyph unicode="[" horiz-adv-x="671" d="M80 -465l334 1876h426l-31 -180h-227l-271 -1516h228l-33 -180h-426z" />
<glyph unicode="\" horiz-adv-x="1028" d="M311 1411h209l445 -1411h-209z" />
<glyph unicode="]" horiz-adv-x="671" d="M-2 -465l29 180h227l270 1516h-227l31 180h426l-334 -1876h-422z" />
<glyph unicode="_" horiz-adv-x="1452" d="M92 -236l29 177h1182l-29 -177h-1182z" />
<glyph unicode="`" horiz-adv-x="1069" d="M516 1430h238l147 -324h-184z" />
<glyph unicode="a" horiz-adv-x="1249" d="M170 479q27 148 115 263t208 175t250 60q95 0 180 -39.5t115 -116.5l23 135h209l-168 -956h-209l22 137q-59 -74 -156 -115.5t-192 -41.5q-96 0 -177.5 35.5t-137.5 99t-79 158.5q-12 51 -12 106q0 48 9 100zM387 481q-6 -32 -6 -62q0 -88 54 -151q72 -84 194 -84 t222 80.5t124 216.5q5 31 5 59q0 92 -58 152q-76 80 -189 80q-123 0 -222.5 -81t-123.5 -210z" />
<glyph unicode="b" horiz-adv-x="1245" d="M147 0l261 1477h210l-114 -658q56 76 149 117t199 41q201 0 314 -138q83 -102 83 -251q0 -53 -10 -111q-27 -146 -113 -261t-205.5 -175.5t-248.5 -60.5q-102 0 -181.5 41.5t-109.5 117.5l-23 -139h-211zM442 481q-6 -34 -6 -64q0 -91 54 -152q72 -81 194 -81t219 83.5 t121 213.5q6 33 6 63q0 87 -51 147q-69 81 -191 81q-73 0 -145 -33t-128.5 -101t-72.5 -157z" />
<glyph unicode="c" horiz-adv-x="1052" d="M168 481q27 147 117.5 261.5t216 174.5t264.5 60q115 0 206.5 -43t145.5 -123l-188 -131q-68 92 -199 92q-123 0 -226.5 -81t-127.5 -210q-6 -32 -6 -61q0 -90 56 -154q74 -84 198 -84q63 0 125 25t106 69l143 -129q-172 -167 -409 -167q-102 0 -188.5 36t-145.5 100 q-58 66 -82 160q-14 53 -14 111q0 46 8 94z" />
<glyph unicode="d" horiz-adv-x="1245" d="M170 477q27 149 113 264.5t204 175.5t248 60q106 0 187 -41t112 -117l115 658h209l-260 -1477h-209l20 139q-58 -76 -153 -117.5t-197 -41.5q-96 0 -176.5 36t-134.5 99.5t-76 157.5q-12 49 -12 103q0 49 10 101zM387 481q-6 -33 -7 -63q0 -87 52 -150q70 -84 191 -84 q122 0 221 81t123 216q5 31 5 60q0 91 -56 151q-74 80 -189 80q-122 0 -219 -80.5t-121 -210.5z" />
<glyph unicode="e" horiz-adv-x="1132" d="M168 481q27 148 113.5 262t208.5 174t258 60q207 -1 319 -137q83 -101 82 -248q0 -53 -10 -111q-3 -11 -8.5 -38.5t-8.5 -39.5h-760v-12q0 -101 65 -162q69 -65 187 -65q82 0 160.5 36.5t124.5 100.5q42 -23 160 -76q-84 -122 -214.5 -183.5t-273.5 -61.5 q-101 0 -184.5 36t-138.5 100q-55 66 -77 160q-12 51 -12 106q0 48 9 99zM391 557h555v13q0 100 -58 160q-62 62 -171 63q-112 0 -201.5 -63.5t-124.5 -172.5z" />
<glyph unicode="f" horiz-adv-x="710" d="M188 782l31 174h182l17 88q33 202 150 317.5t309 115.5h104l-35 -203h-104q-50 0 -88 -18t-61.5 -51.5t-38 -72t-23.5 -88.5l-17 -88h215l-30 -174h-215l-138 -782h-213l138 782h-183z" />
<glyph unicode="g" horiz-adv-x="1249" d="M94 -209q11 5 88.5 42t102.5 46q24 -73 91.5 -116.5t147.5 -43.5q153 0 253 91.5t134 285.5q5 38 9 49q-55 -77 -154.5 -121t-200.5 -44q-97 0 -178 35t-136 98t-77 157q-13 51 -13 107q0 47 9 98q26 147 114 263t208.5 177.5t250.5 61.5q100 0 182.5 -43t112.5 -119 l25 141h207l-146 -815q-55 -318 -220 -468t-415 -150q-141 0 -246 70t-149 198zM387 477q-6 -34 -6 -64q0 -89 53 -149q70 -82 193 -82q74 0 145.5 33.5t128 102.5t72.5 159q6 35 6 66q0 91 -52 150q-70 79 -194 79q-122 0 -222 -83t-124 -212z" />
<glyph unicode="h" horiz-adv-x="1183" d="M147 0l261 1477h210l-116 -666q49 80 147.5 123t184.5 43q184 1 265 -113q56 -78 56 -199q0 -55 -12 -120l-94 -545h-211l92 532q6 32 6 60q0 69 -36 114q-50 64 -142 64q-48 0 -95 -14t-92 -43t-77.5 -80.5t-44.5 -118.5l-91 -514h-211z" />
<glyph unicode="i" horiz-adv-x="503" d="M147 0l168 956h209l-168 -956h-209zM348 1343q10 57 58 95.5t106 38.5q60 -1 94 -39q26 -30 26 -70q0 -12 -3 -25q-11 -57 -57.5 -95t-106.5 -38q-59 0 -93 38q-27 30 -26 71q0 11 2 24z" />
<glyph unicode="j" horiz-adv-x="507" d="M-209 -473l35 197h115q50 0 86 19t56.5 53t31.5 67t18 76l182 1017h213l-180 -1017q-74 -412 -418 -412h-139zM350 1343q10 57 58 95.5t106 38.5q60 0 94 -39q27 -29 27 -70q0 -12 -2 -25q-10 -57 -58 -95t-108 -38q-58 0 -93 38q-26 30 -26 71q0 11 2 24z" />
<glyph unicode="k" horiz-adv-x="1036" d="M147 0l261 1477h208l-147 -836l358 315h283l-481 -415l405 -541h-270l-330 444l-78 -444h-209z" />
<glyph unicode="l" horiz-adv-x="505" d="M147 0l261 1477h210l-260 -1477h-211z" />
<glyph unicode="m" horiz-adv-x="1787" d="M147 0l168 956h211l-24 -143q31 46 77 80.5t93 51.5t86.5 24.5t72.5 7.5q219 0 267 -191q141 191 356 191q178 -1 253 -111q51 -75 51 -194q0 -56 -11 -121l-96 -551h-211l92 532q6 34 6 64q0 66 -30 110q-44 64 -138 64q-104 0 -179 -69.5t-95 -186.5l-90 -514h-211 l92 537q5 33 5 61q0 66 -29 110q-42 62 -130 62q-66 0 -121.5 -23.5t-101 -83t-61.5 -149.5l-91 -514h-211z" />
<glyph unicode="n" horiz-adv-x="1153" d="M147 0l168 956h211l-24 -143q51 77 143.5 120.5t177.5 43.5q174 -1 249 -109q51 -74 51 -191q0 -55 -11 -120l-96 -557h-211l92 532q6 36 6 67q0 67 -29 109q-43 62 -137 62q-49 0 -93.5 -14t-84.5 -43t-69 -80t-41 -119l-91 -514h-211z" />
<glyph unicode="o" d="M168 481q27 148 115 262t211.5 174t259.5 60q101 0 186 -35.5t142.5 -98.5t81.5 -157q13 -51 12 -107q0 -47 -9 -98q-26 -147 -115 -263t-213.5 -177t-260.5 -61q-102 0 -186.5 36t-140.5 100q-56 66 -79 160q-13 52 -13 108q0 47 9 97zM377 481q-6 -34 -7 -65 q0 -90 52 -150q70 -82 192 -82q121 0 219.5 82.5t122.5 214.5q6 33 6 62q0 88 -52 148q-69 79 -193 79q-122 0 -219 -80.5t-121 -208.5z" />
<glyph unicode="p" horiz-adv-x="1241" d="M61 -465l254 1421h211l-24 -141q59 76 153 119t195 43q96 0 176 -36.5t133.5 -100.5t74.5 -158q11 -49 11 -101q0 -50 -10 -104q-27 -148 -113 -263t-203.5 -174.5t-246.5 -59.5q-103 0 -182 40t-109 117l-109 -602h-211zM442 473q-6 -33 -6 -62q0 -92 55 -151 q72 -78 189 -78q122 0 219 80.5t121 210.5q6 35 6 66q0 88 -50 149q-67 84 -190 84q-122 0 -221 -82t-123 -217z" />
<glyph unicode="q" horiz-adv-x="1241" d="M170 477q27 147 112.5 262t204.5 176.5t248 61.5q100 0 183 -44t110 -118l23 141h211l-254 -1421h-211l108 602q-55 -76 -149 -116.5t-197 -40.5q-97 0 -177.5 35.5t-134.5 98.5t-75 158q-12 48 -12 102q0 50 10 103zM387 473q-6 -34 -6 -64q0 -88 49 -147 q67 -80 191 -80q73 0 143.5 32t126.5 100t72 159q6 35 6 67q0 90 -51 150q-69 82 -191 82t-219 -83.5t-121 -215.5z" />
<glyph unicode="r" horiz-adv-x="817" d="M147 0l168 956h211l-39 -219q112 240 306 240q118 0 161 -37l-67 -195q-60 33 -137 33q-130 0 -214 -117t-118 -317l-60 -344h-211z" />
<glyph unicode="s" horiz-adv-x="909" d="M129 293h195q-1 -7 0 -13q0 -54 38 -87q42 -37 125 -37q74 0 127.5 30.5t63.5 83.5q1 8 1 15q0 71 -114 98l-123 31q-143 40 -191 116q-30 46 -30 109q0 40 12 86q29 106 141 179t244 73q66 0 122.5 -16t100.5 -49q43 -32 65 -88q16 -41 16 -91q0 -19 -2 -39h-201 q1 51 -34 77t-89 26q-42 0 -83.5 -15t-61.5 -39q-25 -30 -25 -65q0 -10 2 -21q7 -45 104 -73l140 -37q57 -14 98 -39t62 -54q22 -28 34 -62q11 -30 10 -57v-7q-2 -31 -4 -60q-24 -135 -143 -211.5t-289 -76.5q-144 0 -239 84q-76 68 -76 175q0 26 4 54z" />
<glyph unicode="t" horiz-adv-x="688" d="M188 782l31 174h172l62 363h211l-62 -363h203l-31 -174h-203l-137 -782h-211l137 782h-172z" />
<glyph unicode="u" horiz-adv-x="1150" d="M207 399l98 557h211l-94 -532q-7 -37 -8 -69q0 -65 31 -108q45 -63 135 -63q38 0 74 8.5t71 28t63 48.5t49 73.5t31 99.5l93 514h210l-167 -956h-211l22 139q-54 -77 -142 -118t-171 -41q-178 0 -256 108q-52 72 -52 188q0 56 13 123z" />
<glyph unicode="v" horiz-adv-x="1046" d="M195 956h223l151 -688l394 688h225l-567 -956h-195z" />
<glyph unicode="w" horiz-adv-x="1601" d="M199 956h225l106 -645l336 645h197l106 -645l338 645h226l-519 -956h-174l-125 678l-352 -678h-172z" />
<glyph unicode="x" horiz-adv-x="1036" d="M18 0l471 522l-237 434h250l137 -264l231 264h250l-389 -434l285 -522h-248l-188 350l-316 -350h-246z" />
<glyph unicode="y" horiz-adv-x="1038" d="M113 -467l299 512l-217 911h225l149 -655l385 655h226l-846 -1423h-221z" />
<glyph unicode="z" horiz-adv-x="1032" d="M84 0l29 168l645 590h-508l35 198h815l-31 -168l-653 -589h549l-33 -199h-848z" />
<glyph unicode="{" horiz-adv-x="817" d="M143 401l29 152q49 0 93 36t52 81l64 356q19 118 90.5 211t172.5 141.5t212 48.5h141l-26 -157h-148q-87 0 -160 -64.5t-88 -156.5l-57 -322q-13 -84 -60 -154t-122 -96q126 -43 94 -250l-55 -305q-17 -92 32.5 -159.5t135.5 -67.5h147l-31 -160h-141q-83 0 -151.5 29 t-114 80.5t-64 128t-2.5 166.5l62 348q8 43 -24 78.5t-81 35.5z" />
<glyph unicode="|" horiz-adv-x="464" d="M121 -246l334 1878h133l-334 -1878h-133z" />
<glyph unicode="}" horiz-adv-x="817" d="M-10 -465l26 160h148q84 0 156.5 67t89.5 160l55 305q13 84 60 156t120 94q-122 51 -92 250l57 322q15 93 -33.5 157t-134.5 64h-147l29 157h141q83 0 152 -28.5t115 -80t64.5 -127.5t2.5 -165l-64 -356q-8 -45 24 -81t81 -36l-27 -152q-49 0 -93 -35.5t-52 -78.5 l-62 -348q-21 -120 -93 -213t-173 -142t-213 -49h-137z" />
<glyph unicode="&#xa1;" horiz-adv-x="509" d="M53 -465l219 1045h168l-159 -1045h-228zM258 840q12 59 61.5 98t108.5 39q61 0 96 -39t25 -98t-59.5 -99.5t-110.5 -40.5t-96 40.5t-25 99.5z" />
<glyph unicode="&#xa2;" horiz-adv-x="1091" d="M180 481q36 194 177 326.5t325 161.5l39 217h133l-37 -211q102 -6 182.5 -48.5t130.5 -115.5l-188 -131q-31 44 -83.5 68t-115.5 24q-123 0 -226.5 -81t-127.5 -210q-24 -130 50 -214.5t198 -84.5q63 0 125 25t106 69l146 -129q-159 -150 -373 -165l-41 -226h-133l41 232 q-113 20 -195 84.5t-119.5 171.5t-13.5 237z" />
<glyph unicode="&#xa3;" horiz-adv-x="1316" d="M94 0l33 201h197l69 383h-160l21 125h160l45 245q37 217 173 345t335 128q86 0 156.5 -30t117.5 -85t65.5 -138.5t0.5 -184.5h-211q21 112 -33.5 170.5t-149.5 50.5q-85 -5 -151.5 -58t-83.5 -138l-55 -305h292l-20 -125h-293l-70 -383h406h7q21 0 33.5 1t31 5t29.5 16 t14 31l16 102h209l-16 -104q-18 -109 -87 -180.5t-169 -71.5h-912z" />
<glyph unicode="&#xa4;" horiz-adv-x="1257" d="M201 330l170 145q-47 90 -25 219q21 118 107 221l-123 146l141 119l121 -146q109 66 229 66t211 -66l168 146l98 -119l-170 -148q48 -101 27 -219q-21 -124 -104 -219l118 -145l-141 -121l-119 147q-112 -67 -233 -67t-209 67l-168 -147zM541 694q-17 -88 33.5 -149.5 t138.5 -61.5q87 0 161 62t91 149t-36.5 150t-140.5 63q-88 0 -159 -62t-88 -151z" />
<glyph unicode="&#xa5;" horiz-adv-x="1437" d="M285 219l22 133h357l28 168h-356l24 133h353l-398 758h260l291 -561l492 561h260l-672 -758h357l-25 -133h-363l-28 -168h362l-22 -133h-363l-37 -219h-223l37 219h-356z" />
<glyph unicode="&#xa6;" horiz-adv-x="468" d="M123 -246l139 793h133l-139 -793h-133zM313 838l144 794h133l-144 -794h-133z" />
<glyph unicode="&#xa7;" horiz-adv-x="1067" d="M123 -27l194 56q17 -75 67.5 -114.5t119.5 -39.5q90 0 162.5 58t89.5 153l69 379q18 97 -35 154t-147 57q-57 0 -113 -19l33 199q55 14 115 14q173 0 272 -111.5t68 -293.5l-68 -379q-33 -181 -173 -293t-312 -112q-135 0 -230 77.5t-112 214.5zM240 643l69 379 q33 181 172.5 293t311.5 112q135 0 229.5 -77t114.5 -215l-195 -56q-17 75 -67 114.5t-119 39.5q-90 0 -162.5 -58t-89.5 -153l-70 -379q-18 -97 35 -154t147 -57q57 0 113 19l-35 -199q-55 -14 -114 -14q-173 0 -272 111.5t-68 293.5z" />
<glyph unicode="&#xa8;" horiz-adv-x="1105" d="M471 1274q10 54 55 89.5t101 35.5q55 0 85.5 -36t20.5 -89q-11 -54 -54 -90.5t-97 -36.5q-56 0 -88.5 36.5t-22.5 90.5zM821 1274q10 54 55 89.5t101 35.5q55 0 86.5 -36t21.5 -89q-10 -54 -54.5 -90.5t-98.5 -36.5q-56 0 -88.5 36.5t-22.5 90.5z" />
<glyph unicode="&#xa9;" horiz-adv-x="1652" d="M233 702q36 197 159.5 363.5t305 264t377.5 97.5t344.5 -97.5t214.5 -264.5t31 -363q-27 -148 -107 -281.5t-193 -230t-256 -153.5t-290 -57q-148 0 -270.5 57t-200.5 153.5t-110 230t-5 281.5zM358 702q-22 -121 5 -231t91.5 -190t166.5 -127.5t223 -47.5 q162 0 311.5 80t251.5 217t131 299q30 162 -25 300t-178 218t-284 80q-162 0 -311 -80.5t-250.5 -217.5t-131.5 -300zM584 692q29 155 153.5 262t280.5 107q148 0 258 -135l-113 -97q-81 95 -170 95q-96 0 -174.5 -68.5t-95.5 -163.5q-15 -98 38.5 -165.5t149.5 -67.5 q87 0 207 98l76 -102q-155 -133 -307 -133q-156 0 -243.5 108t-59.5 262z" />
<glyph unicode="&#xaa;" horiz-adv-x="987" d="M244 438l18 105h645l-18 -105h-645zM289 1001q29 156 145.5 253.5t259.5 97.5q70 0 127.5 -29t79.5 -84l17 98h135l-119 -673h-135l18 100q-40 -53 -109.5 -84t-138.5 -31q-143 0 -225.5 97.5t-54.5 254.5zM432 1004q-17 -97 31.5 -158.5t140.5 -61.5q91 0 163.5 59.5 t92.5 160.5q16 99 -39 156t-141 57q-92 0 -161.5 -58t-86.5 -155z" />
<glyph unicode="&#xab;" horiz-adv-x="1011" d="M174 477l358 424h179l-359 -424l209 -424h-178zM537 477l358 424h176l-358 -424l209 -424h-177z" />
<glyph unicode="&#xac;" horiz-adv-x="1308" d="M244 547l32 194h1002l-86 -508h-197l54 314h-805z" />
<glyph unicode="&#xad;" horiz-adv-x="985" d="M203 389l35 191h714l-34 -191h-715z" />
<glyph unicode="&#xae;" horiz-adv-x="1652" d="M233 702q36 197 159.5 363.5t305 264t377.5 97.5t344.5 -97.5t214.5 -264.5t31 -363q-27 -148 -107 -281.5t-193 -230t-256 -153.5t-290 -57q-148 0 -270.5 57t-200.5 153.5t-110 230t-5 281.5zM358 702q-22 -121 5 -231t91.5 -190t166.5 -127.5t223 -47.5 q162 0 311.5 80t251.5 217t131 299q30 162 -25 300t-178 218t-284 80q-162 0 -311 -80.5t-250.5 -217.5t-131.5 -300zM639 338l127 723h281q111 0 158.5 -70t31.5 -168q-13 -79 -64 -141t-135 -84l142 -260h-172l-138 250h-47l-43 -250h-141zM846 727h135q45 0 78 28.5 t39 67.5q6 41 -14 70t-62 29h-139z" />
<glyph unicode="&#xaf;" horiz-adv-x="1019" d="M453 1171l28 166h529l-29 -166h-528z" />
<glyph unicode="&#xb0;" horiz-adv-x="755" d="M303 1137q22 113 116 193.5t206 80.5q113 0 181 -81t48 -193q-20 -115 -115 -196t-211 -81q-111 0 -178 81t-47 196zM446 1137q-10 -55 22.5 -94t86.5 -39q55 0 100 38.5t56 94.5q11 54 -21.5 92.5t-87.5 38.5q-54 0 -99.5 -38.5t-56.5 -92.5z" />
<glyph unicode="&#xb1;" horiz-adv-x="1105" d="M137 0l29 178h831l-28 -178h-832zM238 575l32 185h322l53 293h186l-53 -293h324l-33 -185h-324l-53 -296h-186l53 296h-321z" />
<glyph unicode="&#xb2;" horiz-adv-x="649" d="M223 883l10 65l392 387q61 58 73 117q10 49 -20.5 81t-85.5 32q-51 0 -94 -33.5t-66 -93.5l-113 28q35 103 116.5 164.5t180.5 61.5q107 0 168.5 -68t42.5 -172q-18 -105 -120 -207q-42 -40 -81.5 -77.5t-73 -69.5t-87.5 -86h285l-25 -129h-502z" />
<glyph unicode="&#xb3;" horiz-adv-x="653" d="M227 1038q51 23 117 60q14 -43 46.5 -71t78.5 -32h-2q62 -5 115 30t65 89q11 51 -21 92t-96 41h-90l21 117h90q53 0 89 38.5t36 82.5q2 36 -22.5 60t-65.5 24q-76 8 -135 -64q-6 5 -40 32.5t-44 37.5q45 57 112.5 88t141.5 27q99 -4 149 -68.5t35 -151.5 q-6 -47 -40.5 -90t-82.5 -67q60 -24 83 -85t5 -130q-29 -103 -125.5 -168t-208.5 -58q-78 6 -134 51.5t-77 114.5z" />
<glyph unicode="&#xb4;" horiz-adv-x="1069" d="M459 1106l262 324h237l-315 -324h-184z" />
<glyph unicode="&#xb5;" horiz-adv-x="1144" d="M102 -334l230 1290h211l-97 -542q-20 -108 21 -168t125 -60q65 0 122 23.5t104 83t63 147.5l92 516h211l-168 -956h-211l18 121q-52 -68 -132.5 -103.5t-155.5 -35.5q-119 0 -168 59l-37 -246l-23 -129h-205z" />
<glyph unicode="&#xb6;" horiz-adv-x="1366" d="M242 967q32 185 183.5 314.5t338.5 129.5h160l-246 -1391q-1 -9 -3.5 -33.5t-4.5 -32t-8.5 -23.5t-16 -21t-27.5 -10.5t-43 -5.5h-102l115 628q-175 12 -276.5 139.5t-69.5 305.5zM424 -381l29 164h196q42 0 80.5 28t44.5 66l273 1534h210q117 0 185.5 -83.5t48.5 -197.5 l-33 -174h-172l29 170q8 42 -13 73.5t-61 31.5h-51l-236 -1331q-21 -106 -118 -191.5t-211 -89.5h-23h-178z" />
<glyph unicode="&#xb7;" horiz-adv-x="561" d="M233 563q12 61 60.5 100t107.5 39q61 0 97 -40t26 -99t-60.5 -99t-111.5 -40q-60 0 -94.5 39.5t-24.5 99.5z" />
<glyph unicode="&#xb8;" horiz-adv-x="1073" d="M297 -172l135 -8l-4 -17q-3 -15 0 -30q7 -29 32.5 -41t57.5 -4q32 13 47.5 42t9.5 60l-45 250h109l68 -193q13 -30 0 -90q-12 -81 -83.5 -144t-162.5 -63q-83 0 -133.5 68t-30.5 170z" />
<glyph unicode="&#xb9;" horiz-adv-x="428" d="M299 1423l23 123l296 144l-143 -807h-133l107 608z" />
<glyph unicode="&#xba;" horiz-adv-x="970" d="M229 438l19 105h670l-19 -105h-670zM305 1004q27 155 146 251.5t268 96.5q147 0 232.5 -97t58.5 -251q-29 -156 -149.5 -255.5t-266.5 -99.5t-232 99.5t-57 255.5zM442 1004q-18 -98 32.5 -159t143.5 -61q90 0 163 61t91 159q17 96 -35 154.5t-143 58.5q-92 0 -163.5 -59 t-88.5 -154z" />
<glyph unicode="&#xbb;" horiz-adv-x="1011" d="M106 53l357 424l-205 424h176l205 -424l-356 -424h-177zM467 53l356 424l-205 424h179l204 -424l-356 -424h-178z" />
<glyph unicode="&#xbc;" horiz-adv-x="1538" d="M190 -20l1170 1388h145l-1169 -1388h-146zM279 1081l20 123l295 144l-141 -807h-134l109 608zM836 164l538 635h111l-92 -514h110l-20 -121h-111l-26 -164h-134l27 164h-403zM1069 285h191l53 293z" />
<glyph unicode="&#xbd;" horiz-adv-x="1638" d="M190 -20l1170 1388h145l-1169 -1388h-146zM279 1081l20 123l295 144l-141 -807h-134l109 608zM1034 0l8 66l392 387q68 68 75 116q7 49 -23.5 81t-84.5 32q-52 0 -97 -34t-63 -93l-113 29q35 103 116.5 164t180.5 61q107 0 169 -68t44 -172q-19 -108 -125 -207 q-153 -145 -241 -233h284l-20 -129h-502z" />
<glyph unicode="&#xbe;" horiz-adv-x="1658" d="M205 692l123 62q12 -38 51 -64t82 -28q58 -2 104 30t56 82q12 49 -14 89t-87 40h-106l22 123h94q40 0 69 26t42 58q14 45 -9.5 78t-78.5 33q-63 0 -123 -66l-88 76q45 58 115.5 90.5t144.5 28.5q97 -4 149 -70.5t37 -153.5q-21 -93 -114 -155q53 -26 76 -77.5t6 -123.5 q-24 -112 -117.5 -176t-208.5 -64q-77 2 -141 46.5t-84 115.5zM317 -20l1170 1388h145l-1169 -1388h-146zM958 164l537 635h111l-93 -514h111l-18 -121h-111l-29 -164h-133l29 164h-404zM1190 285h190l54 293z" />
<glyph unicode="&#xbf;" horiz-adv-x="974" d="M53 -70q24 142 125.5 245t235.5 142q73 20 111.5 54t49.5 102l23 105h205l-19 -105q-12 -68 -33 -117t-45.5 -78.5t-64 -55t-74.5 -41t-91.5 -43t-102.5 -54.5q-46 -28 -74.5 -69.5t-36.5 -84.5q-17 -83 39 -136.5t145 -53.5q87 0 156.5 59.5t87.5 159.5h203 q-36 -193 -174 -310.5t-313 -117.5q-179 0 -281.5 109.5t-71.5 289.5zM600 840q10 59 59.5 98t110.5 39t96 -39t25 -98t-61 -99.5t-109 -40.5q-61 0 -96 40.5t-25 99.5z" />
<glyph unicode="&#xc0;" horiz-adv-x="1325" d="M12 0l781 1411h235l285 -1411h-230l-75 352h-570l-194 -352h-232zM547 547h422l-105 592zM651 1884h238l147 -323h-184z" />
<glyph unicode="&#xc1;" horiz-adv-x="1325" d="M12 0l781 1411h235l285 -1411h-230l-75 352h-570l-194 -352h-232zM547 547h422l-105 592zM842 1561l262 323h237l-315 -323h-184z" />
<glyph unicode="&#xc2;" horiz-adv-x="1325" d="M12 0l781 1411h235l285 -1411h-230l-75 352h-570l-194 -352h-232zM547 547h422l-105 592zM606 1563l281 323h213l170 -323h-178l-125 180l-185 -180h-176z" />
<glyph unicode="&#xc3;" horiz-adv-x="1325" d="M12 0l781 1411h235l285 -1411h-230l-75 352h-570l-194 -352h-232zM547 547h422l-105 592zM664 1591q30 128 95 187t136 59q32 0 58.5 -13t41.5 -29t32.5 -29t33.5 -13q21 0 42 19.5t30 64.5h131q-15 -67 -42 -115.5t-60 -74.5t-65 -38t-65 -12q-31 0 -57 13t-40.5 29 t-32 29t-34.5 13q-21 0 -41 -22t-30 -68h-133z" />
<glyph unicode="&#xc4;" horiz-adv-x="1325" d="M12 0l781 1411h235l285 -1411h-230l-75 352h-570l-194 -352h-232zM547 547h422l-105 592zM659 1729q10 54 55 89t101 35q55 0 86 -35.5t21 -88.5q-10 -54 -54 -90.5t-98 -36.5q-56 0 -88.5 36.5t-22.5 90.5zM1010 1729q10 54 54.5 89t100.5 35q55 0 87 -35.5t22 -88.5 q-10 -54 -55 -90.5t-99 -36.5q-56 0 -88 36.5t-22 90.5z" />
<glyph unicode="&#xc5;" horiz-adv-x="1325" d="M12 0l781 1411h235l285 -1411h-230l-75 352h-570l-194 -352h-232zM547 547h422l-105 592zM748 1761q17 96 94.5 162t169.5 66q97 0 149 -65t35 -163q-15 -92 -93 -156.5t-173 -64.5q-92 0 -144.5 64t-37.5 157zM862 1761q-8 -43 18 -74.5t70 -31.5q47 0 85 31.5t46 74.5 q10 47 -16.5 80t-73.5 33q-44 0 -81 -33t-48 -80z" />
<glyph unicode="&#xc6;" horiz-adv-x="1906" d="M-14 0l1138 1411h904l-37 -207h-629l-72 -407h551l-37 -207h-551l-67 -383h651l-35 -207h-868l59 346h-471l-280 -346h-256zM686 555h344l100 557z" />
<glyph unicode="&#xc7;" horiz-adv-x="1402" d="M221 702q36 197 159.5 363.5t305 264t377.5 97.5q167 0 295 -66.5t203 -186.5l-189 -132q-58 82 -147 129.5t-201 47.5q-208 0 -378.5 -151t-207.5 -366q-24 -142 19 -259.5t144.5 -186t240.5 -68.5q116 0 223 49t190 136l144 -133q-106 -112 -245 -180t-294 -78l33 -95 q12 -37 0 -90q-12 -80 -85 -143.5t-163 -63.5q-83 0 -133.5 68t-30.5 170l135 -8q-2 -6 -2 -17q-3 -15 0 -30q7 -29 32 -41t56 -4q34 13 49 41.5t9 60.5l-27 154q-177 16 -306 115.5t-184 258.5t-22 344z" />
<glyph unicode="&#xc8;" horiz-adv-x="1161" d="M184 0l248 1411h850l-35 -201h-633l-73 -417h553l-37 -199h-553l-70 -395h653l-32 -199h-871zM657 1884h238l147 -323h-184z" />
<glyph unicode="&#xc9;" horiz-adv-x="1161" d="M184 0l248 1411h850l-35 -201h-633l-73 -417h553l-37 -199h-553l-70 -395h653l-32 -199h-871zM717 1561l262 323h238l-316 -323h-184z" />
<glyph unicode="&#xca;" horiz-adv-x="1161" d="M184 0l248 1411h850l-35 -201h-633l-73 -417h553l-37 -199h-553l-70 -395h653l-32 -199h-871zM522 1563l281 323h213l170 -323h-178l-125 180l-185 -180h-176z" />
<glyph unicode="&#xcb;" horiz-adv-x="1161" d="M184 0l248 1411h850l-35 -201h-633l-73 -417h553l-37 -199h-553l-70 -395h653l-32 -199h-871zM596 1729q10 54 55 89t101 35q55 0 85.5 -35.5t20.5 -88.5q-11 -54 -54 -90.5t-97 -36.5q-56 0 -88.5 36.5t-22.5 90.5zM946 1729q10 54 55 89t101 35q55 0 86.5 -35.5 t21.5 -88.5q-10 -54 -54.5 -90.5t-98.5 -36.5q-56 0 -88.5 36.5t-22.5 90.5z" />
<glyph unicode="&#xcc;" horiz-adv-x="585" d="M184 0l248 1411h217l-248 -1411h-217zM279 1884h237l148 -323h-185z" />
<glyph unicode="&#xcd;" horiz-adv-x="585" d="M184 0l248 1411h217l-248 -1411h-217zM465 1561l262 323h238l-316 -323h-184z" />
<glyph unicode="&#xce;" horiz-adv-x="585" d="M184 0l248 1411h217l-248 -1411h-217zM238 1563l280 323h213l170 -323h-178l-125 180l-184 -180h-176z" />
<glyph unicode="&#xcf;" horiz-adv-x="585" d="M184 0l248 1411h217l-248 -1411h-217zM291 1729q10 54 54.5 89t100.5 35q55 0 86 -35.5t21 -88.5q-10 -54 -54 -90.5t-98 -36.5q-56 0 -88 36.5t-22 90.5zM641 1729q10 54 55 89t101 35q55 0 86.5 -35.5t21.5 -88.5q-10 -54 -54.5 -90.5t-98.5 -36.5q-56 0 -88.5 36.5 t-22.5 90.5z" />
<glyph unicode="&#xd0;" horiz-adv-x="1480" d="M121 623l29 155h190l111 633h542q196 0 324.5 -94t173 -253.5t8.5 -361.5q-27 -151 -92.5 -279t-161 -222.5t-224.5 -147.5t-276 -53h-542l108 623h-190zM459 209h323q197 0 329.5 137.5t170.5 355.5q25 142 -1 253.5t-109.5 179t-215.5 67.5h-323l-74 -424h315l-28 -155 h-316z" />
<glyph unicode="&#xd1;" horiz-adv-x="1394" d="M184 0l248 1411h209l424 -1001l176 1001h217l-248 -1411h-202l-430 1010l-177 -1010h-217zM698 1591q30 128 95 187t137 59q32 0 58.5 -13t41.5 -29t32.5 -29t33.5 -13q21 0 41.5 19.5t29.5 64.5h131q-15 -67 -42 -115.5t-59.5 -74.5t-64.5 -38t-65 -12q-31 0 -57 13 t-40.5 29t-32 29t-34.5 13q-21 0 -41.5 -22t-30.5 -68h-133z" />
<glyph unicode="&#xd2;" horiz-adv-x="1622" d="M219 702q27 147 106 281t190.5 231.5t254 155t289.5 57.5q148 0 271.5 -57.5t202 -155t111 -231.5t5.5 -281q-36 -198 -159 -363.5t-305.5 -262t-381.5 -96.5q-197 0 -344 96.5t-211 262t-29 363.5zM436 702q-24 -141 20 -257.5t145.5 -184t238.5 -67.5q210 0 381.5 148 t208.5 361q24 141 -20.5 258.5t-147 185.5t-240.5 68q-209 0 -379 -149t-207 -363zM788 1884h238l145 -323h-184z" />
<glyph unicode="&#xd3;" horiz-adv-x="1622" d="M219 702q27 147 106 281t190.5 231.5t254 155t289.5 57.5q148 0 271.5 -57.5t202 -155t111 -231.5t5.5 -281q-36 -198 -159 -363.5t-305.5 -262t-381.5 -96.5q-197 0 -344 96.5t-211 262t-29 363.5zM436 702q-24 -141 20 -257.5t145.5 -184t238.5 -67.5q210 0 381.5 148 t208.5 361q24 141 -20.5 258.5t-147 185.5t-240.5 68q-209 0 -379 -149t-207 -363zM985 1561l264 323h238l-318 -323h-184z" />
<glyph unicode="&#xd4;" horiz-adv-x="1622" d="M219 702q27 147 106 281t190.5 231.5t254 155t289.5 57.5q148 0 271.5 -57.5t202 -155t111 -231.5t5.5 -281q-36 -198 -159 -363.5t-305.5 -262t-381.5 -96.5q-197 0 -344 96.5t-211 262t-29 363.5zM436 702q-24 -141 20 -257.5t145.5 -184t238.5 -67.5q210 0 381.5 148 t208.5 361q24 141 -20.5 258.5t-147 185.5t-240.5 68q-209 0 -379 -149t-207 -363zM754 1563l282 323h213l168 -323h-178l-123 180l-186 -180h-176z" />
<glyph unicode="&#xd5;" horiz-adv-x="1622" d="M219 702q27 147 106 281t190.5 231.5t254 155t289.5 57.5q148 0 271.5 -57.5t202 -155t111 -231.5t5.5 -281q-36 -198 -159 -363.5t-305.5 -262t-381.5 -96.5q-197 0 -344 96.5t-211 262t-29 363.5zM436 702q-24 -141 20 -257.5t145.5 -184t238.5 -67.5q210 0 381.5 148 t208.5 361q24 141 -20.5 258.5t-147 185.5t-240.5 68q-209 0 -379 -149t-207 -363zM813 1591q27 127 93.5 186.5t137.5 59.5q32 0 58.5 -13t41.5 -29t32.5 -29t33.5 -13q21 0 41 19.5t31 64.5h131q-15 -66 -42.5 -115t-60.5 -75t-64.5 -38t-63.5 -12q-30 0 -56.5 13t-42 29 t-33.5 29t-34 13q-20 0 -40 -21.5t-30 -68.5h-133z" />
<glyph unicode="&#xd6;" horiz-adv-x="1622" d="M219 702q27 147 106 281t190.5 231.5t254 155t289.5 57.5q148 0 271.5 -57.5t202 -155t111 -231.5t5.5 -281q-36 -198 -159 -363.5t-305.5 -262t-381.5 -96.5q-197 0 -344 96.5t-211 262t-29 363.5zM436 702q-24 -141 20 -257.5t145.5 -184t238.5 -67.5q210 0 381.5 148 t208.5 361q24 141 -20.5 258.5t-147 185.5t-240.5 68q-209 0 -379 -149t-207 -363zM807 1729q10 53 56 88.5t102 35.5q54 0 84 -35t20 -89q-11 -54 -53 -90.5t-96 -36.5q-56 0 -89.5 37t-23.5 90zM1157 1729q10 53 56 88.5t102 35.5q55 0 85.5 -35.5t20.5 -88.5 q-11 -54 -54 -90.5t-97 -36.5q-56 0 -89.5 37t-23.5 90z" />
<glyph unicode="&#xd7;" horiz-adv-x="1013" d="M178 301l297 250l-207 250l154 129l205 -248l297 252l106 -133l-295 -250l205 -250l-154 -133l-206 252l-293 -248z" />
<glyph unicode="&#xd8;" horiz-adv-x="1617" d="M109 63l196 168q-137 201 -88 471q27 147 106 281t190.5 231.5t254 155t289.5 57.5q265 0 430 -165l190 165l80 -94l-192 -168q127 -205 82 -463q-36 -198 -159 -363.5t-305.5 -262t-381.5 -96.5q-207 0 -357 106q-2 1 -63 49l-193 -168zM434 702q-32 -171 45 -315 l828 719q-114 108 -287 108q-209 0 -379 -149t-207 -363zM559 291q110 -98 279 -98q210 0 381 148t208 361q33 166 -45 306z" />
<glyph unicode="&#xd9;" horiz-adv-x="1386" d="M252 489l166 922h221l-166 -922q-24 -133 51 -217t201 -84t228 83.5t126 217.5l164 922h221l-164 -922q-27 -151 -120.5 -268.5t-222.5 -179t-269 -61.5q-106 0 -195 36.5t-149.5 101t-86 161t-5.5 210.5zM702 1884h238l147 -323h-184z" />
<glyph unicode="&#xda;" horiz-adv-x="1386" d="M252 489l166 922h221l-166 -922q-24 -133 51 -217t201 -84t228 83.5t126 217.5l164 922h221l-164 -922q-27 -151 -120.5 -268.5t-222.5 -179t-269 -61.5q-106 0 -195 36.5t-149.5 101t-86 161t-5.5 210.5zM827 1561l263 323h237l-315 -323h-185z" />
<glyph unicode="&#xdb;" horiz-adv-x="1386" d="M252 489l166 922h221l-166 -922q-24 -133 51 -217t201 -84t228 83.5t126 217.5l164 922h221l-164 -922q-27 -151 -120.5 -268.5t-222.5 -179t-269 -61.5q-106 0 -195 36.5t-149.5 101t-86 161t-5.5 210.5zM635 1563l280 323h213l170 -323h-178l-123 180l-186 -180h-176z " />
<glyph unicode="&#xdc;" horiz-adv-x="1386" d="M252 489l166 922h221l-166 -922q-24 -133 51 -217t201 -84t228 83.5t126 217.5l164 922h221l-164 -922q-27 -151 -120.5 -268.5t-222.5 -179t-269 -61.5q-106 0 -195 36.5t-149.5 101t-86 161t-5.5 210.5zM688 1729q10 53 56 88.5t102 35.5q54 0 84 -35t20 -89 q-11 -54 -53 -90.5t-96 -36.5q-56 0 -89.5 37t-23.5 90zM1038 1729q10 53 56 88.5t102 35.5q55 0 86 -35.5t21 -88.5q-10 -54 -54 -90.5t-98 -36.5q-56 0 -89.5 37t-23.5 90z" />
<glyph unicode="&#xdd;" horiz-adv-x="1298" d="M248 1411h260l291 -561l491 561h260l-678 -766l-112 -645h-223l114 647zM786 1561l263 323h237l-315 -323h-185z" />
<glyph unicode="&#xde;" d="M184 0l248 1411h217l-43 -246h266q189 0 293 -121t68 -319q-36 -200 -183.5 -324.5t-334.5 -124.5h-266l-48 -276h-217zM483 477h262q96 0 173.5 69t97.5 177q19 111 -39 177.5t-156 66.5h-250z" />
<glyph unicode="&#xdf;" horiz-adv-x="1622" d="M210.5 589.5q1.5 104.5 33.5 211.5h1194q-2 100 -40.5 183t-101 136.5t-146 79t-172.5 19t-184.5 -51.5t-177.5 -125l-147 132q82 85 180.5 143t197.5 84.5t200 26.5t191.5 -26.5t169.5 -80t135.5 -127.5t87.5 -175.5t28 -217.5q-6 -153 -74.5 -302t-179 -263.5 t-265.5 -185t-323 -70.5q-109 0 -205 31t-169.5 85.5t-127 131.5t-80 167t-25 194.5zM432 602q2 -98 37 -176.5t93.5 -127.5t132.5 -75t157 -26q113 0 218.5 43.5t196.5 137t138 224.5h-973z" />
<glyph unicode="&#xe0;" horiz-adv-x="1249" d="M170 479q27 148 115 263t208 175t250 60q95 0 180 -39.5t115 -116.5l23 135h209l-168 -956h-209l22 137q-59 -74 -156 -115.5t-192 -41.5q-96 0 -177.5 35.5t-137.5 99t-79 158.5t-3 206zM387 481q-24 -129 48 -213t194 -84t222 80.5t124 216.5q23 132 -52.5 211.5 t-189.5 79.5q-123 0 -222.5 -81t-123.5 -210zM578 1430h237l148 -324h-185z" />
<glyph unicode="&#xe1;" horiz-adv-x="1249" d="M170 479q27 148 115 263t208 175t250 60q95 0 180 -39.5t115 -116.5l23 135h209l-168 -956h-209l22 137q-59 -74 -156 -115.5t-192 -41.5q-96 0 -177.5 35.5t-137.5 99t-79 158.5t-3 206zM387 481q-24 -129 48 -213t194 -84t222 80.5t124 216.5q23 132 -52.5 211.5 t-189.5 79.5q-123 0 -222.5 -81t-123.5 -210zM672 1106l262 324h237l-315 -324h-184z" />
<glyph unicode="&#xe2;" horiz-adv-x="1249" d="M170 479q27 148 115 263t208 175t250 60q95 0 180 -39.5t115 -116.5l23 135h209l-168 -956h-209l22 137q-59 -74 -156 -115.5t-192 -41.5q-96 0 -177.5 35.5t-137.5 99t-79 158.5t-3 206zM387 481q-24 -129 48 -213t194 -84t222 80.5t124 216.5q23 132 -52.5 211.5 t-189.5 79.5q-123 0 -222.5 -81t-123.5 -210zM487 1108l283 324h213l168 -324h-178l-121 180l-188 -180h-177z" />
<glyph unicode="&#xe3;" horiz-adv-x="1249" d="M170 479q27 148 115 263t208 175t250 60q95 0 180 -39.5t115 -116.5l23 135h209l-168 -956h-209l22 137q-59 -74 -156 -115.5t-192 -41.5q-96 0 -177.5 35.5t-137.5 99t-79 158.5t-3 206zM387 481q-24 -129 48 -213t194 -84t222 80.5t124 216.5q23 132 -52.5 211.5 t-189.5 79.5q-123 0 -222.5 -81t-123.5 -210zM547 1137q30 128 95.5 186.5t137.5 58.5q31 0 57 -13t40 -29t31.5 -29t33.5 -13q22 0 43.5 19.5t32.5 64.5h131q-15 -66 -42.5 -115t-60.5 -74.5t-64.5 -37.5t-63.5 -12q-30 0 -56.5 13t-42 29t-33.5 29t-34 13q-21 0 -41.5 -22 t-30.5 -68h-133z" />
<glyph unicode="&#xe4;" horiz-adv-x="1249" d="M170 479q27 148 115 263t208 175t250 60q95 0 180 -39.5t115 -116.5l23 135h209l-168 -956h-209l22 137q-59 -74 -156 -115.5t-192 -41.5q-96 0 -177.5 35.5t-137.5 99t-79 158.5t-3 206zM387 481q-24 -129 48 -213t194 -84t222 80.5t124 216.5q23 132 -52.5 211.5 t-189.5 79.5q-123 0 -222.5 -81t-123.5 -210zM543 1274q10 54 55.5 89.5t101.5 35.5q54 0 84.5 -35.5t20.5 -89.5q-11 -54 -53.5 -90.5t-96.5 -36.5q-56 0 -89 37t-23 90zM893 1274q10 54 56 89.5t102 35.5q55 0 85.5 -36t20.5 -89q-11 -54 -54 -90.5t-97 -36.5 q-56 0 -89.5 37t-23.5 90z" />
<glyph unicode="&#xe5;" horiz-adv-x="1249" d="M170 479q27 148 115 263t208 175t250 60q95 0 180 -39.5t115 -116.5l23 135h209l-168 -956h-209l22 137q-59 -74 -156 -115.5t-192 -41.5q-96 0 -177.5 35.5t-137.5 99t-79 158.5t-3 206zM387 481q-24 -129 48 -213t194 -84t222 80.5t124 216.5q23 132 -52.5 211.5 t-189.5 79.5q-123 0 -222.5 -81t-123.5 -210zM629 1307q17 96 93.5 161.5t168.5 65.5q97 0 151 -64.5t35 -162.5q-15 -92 -93 -157t-173 -65q-92 0 -144.5 64.5t-37.5 157.5zM745 1307q-8 -43 17 -75t69 -32q47 0 86.5 32t47.5 75q10 47 -18.5 79.5t-76.5 32.5 q-44 0 -79 -32t-46 -80z" />
<glyph unicode="&#xe6;" horiz-adv-x="1984" d="M170 479q27 148 115 263t208 175t250 60q95 0 180 -39.5t115 -116.5l23 135h203l-19 -106q159 127 357 127q207 0 319 -136.5t72 -359.5l-19 -78h-757q-4 -110 64.5 -174.5t186.5 -64.5q82 0 160.5 36.5t124.5 100.5q42 -23 160 -76q-84 -122 -214.5 -183.5t-273.5 -61.5 q-98 0 -178.5 33.5t-130.5 95.5l-20 -109h-203l22 137q-59 -74 -156 -115.5t-192 -41.5q-96 0 -177.5 35.5t-137.5 99t-79 158.5t-3 206zM387 481q-24 -129 48 -213t194 -84t222 80.5t124 216.5q23 132 -52.5 211.5t-189.5 79.5q-123 0 -222.5 -81t-123.5 -210zM1245 557 h553q4 110 -57 173t-170 63q-112 0 -201.5 -63.5t-124.5 -172.5z" />
<glyph unicode="&#xe7;" horiz-adv-x="1054" d="M170 481q27 147 117.5 261.5t216 174.5t264.5 60q115 0 206.5 -43t145.5 -123l-188 -131q-68 92 -199 92q-123 0 -226.5 -81t-127.5 -210q-24 -130 50 -214.5t198 -84.5q63 0 125 25t106 69l143 -129q-148 -142 -348 -163l35 -97q13 -30 0 -90q-12 -80 -85 -143.5 t-163 -63.5q-83 0 -133.5 68t-30.5 170l136 -8q-2 -6 -2 -17q-3 -15 0 -30q7 -29 32 -41t56 -4q34 13 48.5 41.5t8.5 60.5l-27 154q-187 21 -290.5 157t-67.5 340z" />
<glyph unicode="&#xe8;" horiz-adv-x="1132" d="M168 481q27 148 113.5 262t208.5 174t258 60q207 0 319 -136.5t72 -359.5q-3 -11 -8.5 -38.5t-8.5 -39.5h-760q-4 -109 65 -174t187 -65q82 0 160.5 36.5t124.5 100.5q42 -23 160 -76q-84 -122 -214.5 -183.5t-273.5 -61.5q-101 0 -184.5 36t-138.5 100.5t-77 159 t-3 205.5zM391 557h555q4 111 -57.5 173.5t-171.5 62.5q-112 0 -201.5 -63.5t-124.5 -172.5zM498 1430h237l148 -324h-185z" />
<glyph unicode="&#xe9;" horiz-adv-x="1132" d="M168 481q27 148 113.5 262t208.5 174t258 60q207 0 319 -136.5t72 -359.5q-3 -11 -8.5 -38.5t-8.5 -39.5h-760q-4 -109 65 -174t187 -65q82 0 160.5 36.5t124.5 100.5q42 -23 160 -76q-84 -122 -214.5 -183.5t-273.5 -61.5q-101 0 -184.5 36t-138.5 100.5t-77 159 t-3 205.5zM391 557h555q4 111 -57.5 173.5t-171.5 62.5q-112 0 -201.5 -63.5t-124.5 -172.5zM637 1106l262 324h238l-316 -324h-184z" />
<glyph unicode="&#xea;" horiz-adv-x="1132" d="M168 481q27 148 113.5 262t208.5 174t258 60q207 0 319 -136.5t72 -359.5q-3 -11 -8.5 -38.5t-8.5 -39.5h-760q-4 -109 65 -174t187 -65q82 0 160.5 36.5t124.5 100.5q42 -23 160 -76q-84 -122 -214.5 -183.5t-273.5 -61.5q-101 0 -184.5 36t-138.5 100.5t-77 159 t-3 205.5zM391 557h555q4 111 -57.5 173.5t-171.5 62.5q-112 0 -201.5 -63.5t-124.5 -172.5zM432 1108l283 324h213l168 -324h-178l-121 180l-189 -180h-176z" />
<glyph unicode="&#xeb;" horiz-adv-x="1132" d="M168 481q27 148 113.5 262t208.5 174t258 60q207 0 319 -136.5t72 -359.5q-3 -11 -8.5 -38.5t-8.5 -39.5h-760q-4 -109 65 -174t187 -65q82 0 160.5 36.5t124.5 100.5q42 -23 160 -76q-84 -122 -214.5 -183.5t-273.5 -61.5q-101 0 -184.5 36t-138.5 100.5t-77 159 t-3 205.5zM391 557h555q4 111 -57.5 173.5t-171.5 62.5q-112 0 -201.5 -63.5t-124.5 -172.5zM487 1274q10 54 56 89.5t102 35.5q54 0 84.5 -35.5t20.5 -89.5q-11 -54 -53.5 -90.5t-96.5 -36.5q-56 0 -89.5 37t-23.5 90zM838 1274q10 54 55.5 89.5t101.5 35.5q55 0 86 -36 t21 -89q-10 -54 -54 -90.5t-98 -36.5q-56 0 -89 37t-23 90z" />
<glyph unicode="&#xec;" horiz-adv-x="503" d="M147 0l168 956h209l-168 -956h-209zM160 1430h237l148 -324h-185z" />
<glyph unicode="&#xed;" horiz-adv-x="503" d="M147 0l168 956h209l-168 -956h-209zM348 1106l262 324h238l-316 -324h-184z" />
<glyph unicode="&#xee;" horiz-adv-x="503" d="M94 1108l283 324h213l168 -324h-178l-123 180l-187 -180h-176zM147 0l168 956h209l-168 -956h-209z" />
<glyph unicode="&#xef;" horiz-adv-x="503" d="M147 0l168 956h209l-168 -956h-209zM150 1274q10 54 54.5 89.5t100.5 35.5q55 0 86 -36t21 -89q-10 -54 -54 -90.5t-98 -36.5q-56 0 -88 36.5t-22 90.5zM500 1274q10 54 54.5 89.5t100.5 35.5q55 0 87 -36t22 -89q-10 -54 -55 -90.5t-99 -36.5q-56 0 -88 36.5t-22 90.5z " />
<glyph unicode="&#xf0;" d="M168 481q27 141 111 254t200 174.5t240 61.5q43 0 78 -15l-113 164l-192 -100l-48 96l181 96l-117 199h229l64 -104l160 79l55 -86l-154 -86l262 -434q71 -126 41 -299q-41 -220 -209 -360.5t-376 -140.5q-101 0 -186 36.5t-142 100.5t-80.5 159t-3.5 205zM371 481 q-24 -132 48 -215.5t195 -83.5t225 83.5t126 215.5q24 131 -48.5 212t-195.5 81q-126 0 -226 -80.5t-124 -212.5z" />
<glyph unicode="&#xf1;" horiz-adv-x="1153" d="M147 0l168 956h211l-24 -143q51 77 143.5 120.5t177.5 43.5q174 0 249 -108.5t40 -311.5l-96 -557h-211l92 532q20 114 -23 176t-137 62q-49 0 -93.5 -14t-84.5 -43t-69 -80t-41 -119l-91 -514h-211zM502 1137q15 67 42.5 116.5t60.5 76.5t65.5 39.5t64.5 12.5t58.5 -13 t41 -29t32 -29t32.5 -13q22 0 43.5 19.5t30.5 64.5h131q-15 -67 -42 -115.5t-60 -74.5t-65 -37.5t-65 -11.5q-31 0 -57 13t-40 29t-31.5 29t-34.5 13q-21 0 -42.5 -22t-31.5 -68h-133z" />
<glyph unicode="&#xf2;" d="M168 481q27 148 115 262t211.5 174t259.5 60q101 0 186 -35.5t142.5 -98.5t81 -157t3.5 -205q-26 -147 -115 -263t-213.5 -177t-260.5 -61q-102 0 -186.5 36t-140.5 100.5t-79 159t-4 205.5zM377 481q-24 -132 45.5 -214.5t191.5 -82.5q121 0 219.5 82.5t122.5 214.5 q23 131 -46 210t-193 79q-122 0 -219 -80.5t-121 -208.5zM473 1430h238l147 -324h-184z" />
<glyph unicode="&#xf3;" d="M168 481q27 148 115 262t211.5 174t259.5 60q101 0 186 -35.5t142.5 -98.5t81 -157t3.5 -205q-26 -147 -115 -263t-213.5 -177t-260.5 -61q-102 0 -186.5 36t-140.5 100.5t-79 159t-4 205.5zM377 481q-24 -132 45.5 -214.5t191.5 -82.5q121 0 219.5 82.5t122.5 214.5 q23 131 -46 210t-193 79q-122 0 -219 -80.5t-121 -208.5zM678 1106l262 324h238l-316 -324h-184z" />
<glyph unicode="&#xf4;" d="M168 481q27 148 115 262t211.5 174t259.5 60q101 0 186 -35.5t142.5 -98.5t81 -157t3.5 -205q-26 -147 -115 -263t-213.5 -177t-260.5 -61q-102 0 -186.5 36t-140.5 100.5t-79 159t-4 205.5zM377 481q-24 -132 45.5 -214.5t191.5 -82.5q121 0 219.5 82.5t122.5 214.5 q23 131 -46 210t-193 79q-122 0 -219 -80.5t-121 -208.5zM446 1108l283 324h213l168 -324h-178l-121 180l-188 -180h-177z" />
<glyph unicode="&#xf5;" d="M168 481q27 148 115 262t211.5 174t259.5 60q101 0 186 -35.5t142.5 -98.5t81 -157t3.5 -205q-26 -147 -115 -263t-213.5 -177t-260.5 -61q-102 0 -186.5 36t-140.5 100.5t-79 159t-4 205.5zM377 481q-24 -132 45.5 -214.5t191.5 -82.5q121 0 219.5 82.5t122.5 214.5 q23 131 -46 210t-193 79q-122 0 -219 -80.5t-121 -208.5zM506 1137q30 128 95.5 186.5t137.5 58.5q31 0 57 -13t40 -29t31.5 -29t33.5 -13q22 0 43.5 19.5t32.5 64.5h131q-15 -66 -42.5 -115t-60.5 -74.5t-64.5 -37.5t-63.5 -12q-30 0 -56.5 13t-42 29t-33.5 29t-34 13 q-21 0 -41.5 -22t-30.5 -68h-133z" />
<glyph unicode="&#xf6;" d="M168 481q27 148 115 262t211.5 174t259.5 60q101 0 186 -35.5t142.5 -98.5t81 -157t3.5 -205q-26 -147 -115 -263t-213.5 -177t-260.5 -61q-102 0 -186.5 36t-140.5 100.5t-79 159t-4 205.5zM377 481q-24 -132 45.5 -214.5t191.5 -82.5q121 0 219.5 82.5t122.5 214.5 q23 131 -46 210t-193 79q-122 0 -219 -80.5t-121 -208.5zM502 1274q10 54 55.5 89.5t101.5 35.5q54 0 84.5 -35.5t20.5 -89.5q-11 -54 -53.5 -90.5t-96.5 -36.5q-56 0 -89 37t-23 90zM852 1274q10 54 56 89.5t102 35.5q55 0 85.5 -36t20.5 -89q-11 -54 -54 -90.5t-97 -36.5 q-56 0 -89.5 37t-23.5 90z" />
<glyph unicode="&#xf7;" horiz-adv-x="1122" d="M197 428l28 176h877l-29 -176h-876zM446 172q10 59 59 97t107 38t92.5 -38t24.5 -97t-59 -97t-107 -38t-92.5 38t-24.5 97zM571 868q10 59 57.5 96t106.5 37t94 -37.5t25 -95.5q-10 -59 -59 -97t-107 -38t-92.5 38t-24.5 97z" />
<glyph unicode="&#xf8;" d="M84 45l135 117q-85 129 -51 319q27 147 116 261.5t212.5 174.5t259.5 60q167 0 291 -98l122 106l80 -94l-123 -107q75 -131 43 -303q-26 -147 -115 -263t-213.5 -177t-260.5 -61q-166 0 -277 88l-139 -119zM379 481q-18 -102 16 -166l475 412q-61 43 -151 43 q-122 0 -219 -80.5t-121 -208.5zM477 221q58 -37 139 -37q124 0 221 82t121 215q14 77 -10 148z" />
<glyph unicode="&#xf9;" horiz-adv-x="1150" d="M207 399l98 557h211l-94 -532q-22 -114 23 -177t135 -63q38 0 74 8.5t71 28t63 48.5t49 73.5t31 99.5l93 514h210l-167 -956h-211l22 139q-54 -77 -142 -118t-171 -41q-178 0 -255.5 108t-39.5 311zM502 1430h237l148 -324h-185z" />
<glyph unicode="&#xfa;" horiz-adv-x="1150" d="M207 399l98 557h211l-94 -532q-22 -114 23 -177t135 -63q38 0 74 8.5t71 28t63 48.5t49 73.5t31 99.5l93 514h210l-167 -956h-211l22 139q-54 -77 -142 -118t-171 -41q-178 0 -255.5 108t-39.5 311zM631 1106l262 324h237l-315 -324h-184z" />
<glyph unicode="&#xfb;" horiz-adv-x="1150" d="M207 399l98 557h211l-94 -532q-22 -114 23 -177t135 -63q38 0 74 8.5t71 28t63 48.5t49 73.5t31 99.5l93 514h210l-167 -956h-211l22 139q-54 -77 -142 -118t-171 -41q-178 0 -255.5 108t-39.5 311zM432 1108l283 324h213l168 -324h-178l-123 180l-187 -180h-176z" />
<glyph unicode="&#xfc;" horiz-adv-x="1150" d="M207 399l98 557h211l-94 -532q-22 -114 23 -177t135 -63q38 0 74 8.5t71 28t63 48.5t49 73.5t31 99.5l93 514h210l-167 -956h-211l22 139q-54 -77 -142 -118t-171 -41q-178 0 -255.5 108t-39.5 311zM487 1274q10 54 55 89.5t101 35.5q55 0 86 -36t21 -89 q-10 -54 -54 -90.5t-98 -36.5q-56 0 -88.5 36.5t-22.5 90.5zM838 1274q10 54 54.5 89.5t100.5 35.5q55 0 87 -36t22 -89q-10 -54 -55 -90.5t-99 -36.5q-56 0 -88 36.5t-22 90.5z" />
<glyph unicode="&#xfd;" horiz-adv-x="1038" d="M113 -467l299 512l-217 911h225l149 -655l385 655h226l-846 -1423h-221zM553 1106l262 324h238l-316 -324h-184z" />
<glyph unicode="&#xfe;" horiz-adv-x="1230" d="M66 -444l344 1919h211l-117 -637q58 67 147 103t183 36q204 0 317.5 -138t73.5 -362q-27 -147 -112 -261.5t-205 -175t-253 -60.5q-93 0 -168.5 37t-109.5 104l-101 -565h-210zM442 479q-24 -136 47 -215.5t193 -79.5q119 0 213 82.5t119 212.5q24 130 -42.5 210.5 t-187.5 80.5q-73 0 -144 -33t-126.5 -101t-71.5 -157z" />
<glyph unicode="&#xff;" horiz-adv-x="1132" d="M168 473q3 11 8 38.5t8 39.5h760q4 110 -65 175t-187 65q-82 0 -160 -37t-124 -101q-42 23 -160 76q84 122 214 184t273 62q208 0 326 -140t78 -362q-39 -222 -205 -359t-375 -137q-206 0 -318 136.5t-73 359.5zM360 397q-4 -111 58 -173t172 -62q112 0 201 63t124 172 h-555z" />
<glyph unicode="&#x152;" horiz-adv-x="2275" d="M219 702q36 197 158.5 363.5t303 264t376.5 97.5q146 0 263.5 -58.5t190.5 -164.5l39 207h846l-39 -207h-628l-70 -407h551l-37 -207h-551l-68 -383h652l-35 -207h-868l32 201q-111 -105 -249.5 -163t-284.5 -58q-147 0 -269 57t-199 153.5t-109 230t-5 281.5zM436 702 q-24 -138 19 -253.5t144.5 -183.5t240.5 -68q107 0 206.5 41.5t176 112t129.5 166t71 202.5q19 134 -26 246.5t-145 178.5t-234 66q-208 0 -376.5 -148t-205.5 -360z" />
<glyph unicode="&#x153;" horiz-adv-x="1923" d="M168 481q27 147 115 261t211 173.5t260 59.5q122 0 216 -47t148 -135q178 184 422 184q207 0 315 -132.5t76 -348.5q-2 -10 -5 -29t-6 -34.5t-7 -29.5h-758q-4 -110 64 -174.5t186 -64.5q83 0 160.5 36t126.5 101q48 -26 159 -76q-84 -122 -214 -183.5t-273 -61.5 q-122 0 -214.5 48t-143.5 138q-87 -89 -197.5 -137.5t-230.5 -48.5q-102 0 -186.5 36t-140.5 100.5t-79 159t-4 205.5zM377 481q-24 -132 45.5 -214.5t191.5 -82.5q121 0 219.5 82.5t122.5 214.5q23 131 -46 210t-193 79q-122 0 -219 -80.5t-121 -208.5zM1182 557h555 q4 110 -57.5 173t-170.5 63q-112 0 -201.5 -63.5t-125.5 -172.5z" />
<glyph unicode="&#x178;" horiz-adv-x="1298" d="M248 1411h260l291 -561l491 561h260l-678 -766l-112 -645h-223l114 647zM649 1729q10 54 55 89t101 35q55 0 85.5 -35.5t20.5 -88.5q-11 -54 -54 -90.5t-97 -36.5q-56 0 -88.5 36.5t-22.5 90.5zM999 1729q10 54 55 89t101 35q55 0 87 -35.5t22 -88.5q-10 -54 -55 -90.5 t-99 -36.5q-56 0 -88.5 36.5t-22.5 90.5z" />
<glyph unicode="&#x2c6;" horiz-adv-x="1093" d="M410 1108l282 324h213l168 -324h-178l-123 180l-186 -180h-176z" />
<glyph unicode="&#x2dc;" horiz-adv-x="884" d="M362 1137q30 128 96 186.5t138 58.5q32 0 58.5 -13t41 -29t32 -29t32.5 -13q21 0 42 19.5t32 64.5h131q-15 -66 -42.5 -115t-60.5 -74.5t-65 -37.5t-64 -12q-30 0 -56.5 13t-42 29t-33.5 29t-34 13q-21 0 -41 -22t-30 -68h-134z" />
<glyph unicode="&#x2000;" horiz-adv-x="994" />
<glyph unicode="&#x2001;" horiz-adv-x="1989" />
<glyph unicode="&#x2002;" horiz-adv-x="994" />
<glyph unicode="&#x2003;" horiz-adv-x="1989" />
<glyph unicode="&#x2004;" horiz-adv-x="663" />
<glyph unicode="&#x2005;" horiz-adv-x="497" />
<glyph unicode="&#x2006;" horiz-adv-x="331" />
<glyph unicode="&#x2007;" horiz-adv-x="331" />
<glyph unicode="&#x2008;" horiz-adv-x="248" />
<glyph unicode="&#x2009;" horiz-adv-x="397" />
<glyph unicode="&#x200a;" horiz-adv-x="110" />
<glyph unicode="&#x2010;" horiz-adv-x="985" d="M203 389l35 191h714l-34 -191h-715z" />
<glyph unicode="&#x2011;" horiz-adv-x="985" d="M203 389l35 191h714l-34 -191h-715z" />
<glyph unicode="&#x2012;" horiz-adv-x="985" d="M203 389l35 191h714l-34 -191h-715z" />
<glyph unicode="&#x2013;" horiz-adv-x="1230" d="M203 387l33 184h960l-33 -184h-960z" />
<glyph unicode="&#x2014;" horiz-adv-x="1654" d="M203 387l33 184h1384l-33 -184h-1384z" />
<glyph unicode="&#x2018;" horiz-adv-x="520" d="M285 954q38 161 131.5 300.5t179.5 201.5l100 -45q-182 -207 -225 -457h-186z" />
<glyph unicode="&#x2019;" horiz-adv-x="509" d="M258 954q185 210 225 457h187q-41 -164 -133 -302t-179 -200z" />
<glyph unicode="&#x201a;" horiz-adv-x="501" d="M14 -119q186 211 228 457h186q-40 -164 -133 -300t-182 -202z" />
<glyph unicode="&#x201c;" horiz-adv-x="835" d="M285 956q38 162 131.5 299.5t181.5 202.5l98 -45q-182 -207 -225 -457h-186zM602 956q38 161 131.5 300.5t179.5 201.5l99 -45q-181 -206 -224 -457h-186z" />
<glyph unicode="&#x201d;" horiz-adv-x="825" d="M258 954q182 207 225 457h185q-38 -164 -130 -301t-180 -201zM573 954q187 212 226 457h186q-38 -164 -130.5 -301.5t-178.5 -200.5z" />
<glyph unicode="&#x201e;" horiz-adv-x="817" d="M14 -119q180 204 228 457h184q-36 -162 -130 -299.5t-183 -202.5zM330 -119q185 210 227 457h186q-40 -163 -133 -300.5t-180 -201.5z" />
<glyph unicode="&#x2022;" horiz-adv-x="946" d="M246 489q25 127 130.5 212t233.5 85t205 -86t53 -211q-25 -128 -130 -213.5t-234 -85.5q-130 0 -206 86t-52 213z" />
<glyph unicode="&#x2026;" horiz-adv-x="1540" d="M150 117q10 60 57.5 99.5t107.5 39.5q61 0 97 -40t26 -99t-60.5 -98t-111.5 -39q-60 0 -93 38.5t-23 98.5zM647 117q10 60 58 99.5t108 39.5q61 0 97 -40t26 -99t-60.5 -98t-111.5 -39q-60 0 -93.5 38.5t-23.5 98.5zM1143 117q10 60 59 99.5t109 39.5q61 0 97 -40t26 -99 q-12 -59 -62 -98t-110 -39q-61 0 -95 39t-24 98z" />
<glyph unicode="&#x202f;" horiz-adv-x="397" />
<glyph unicode="&#x2039;" horiz-adv-x="651" d="M174 477l358 424h179l-359 -424l209 -424h-178z" />
<glyph unicode="&#x203a;" horiz-adv-x="651" d="M106 53l357 424l-205 424h178l205 -424l-356 -424h-179z" />
<glyph unicode="&#x205f;" horiz-adv-x="497" />
<glyph unicode="&#x20ac;" horiz-adv-x="1679" d="M190 512l21 117h969l-21 -117h-516q30 -145 139 -234.5t267 -89.5q115 0 221.5 48.5t189.5 136.5l144 -133q-111 -123 -265.5 -191.5t-326.5 -68.5q-247 0 -410 149.5t-184 382.5h-228zM231 750l21 116h221q100 245 320 403t475 158q167 0 295.5 -67t201.5 -186 l-188 -132q-57 82 -145 129.5t-201 47.5q-165 0 -312 -98.5t-223 -254.5h525l-21 -116h-969z" />
<glyph unicode="&#x2122;" horiz-adv-x="1728" d="M356 1282l21 129h747l152 -530l338 530h127l-45 -774h-142l31 524l-278 -440h-117l-123 440l-156 -524h-143l193 645h-218l-116 -645h-148l117 645h-240z" />
<glyph unicode="&#x25fc;" horiz-adv-x="952" d="M0 0v952h952v-952h-952z" />
</font>
</defs>
</svg>
